<?xml version="1.0" encoding="UTF-8"?>
<svg id="Layer_1" data-name="Layer 1" xmlns="http://www.w3.org/2000/svg" xmlns:xlink="http://www.w3.org/1999/xlink" viewBox="0 0 100 100">
  <defs>
    <style>
      .cls-1 {
        fill: url(#linear-gradient-2);
      }

      .cls-2 {
        fill: url(#linear-gradient-6);
      }

      .cls-3 {
        fill: url(#linear-gradient-5);
      }

      .cls-4 {
        fill: url(#linear-gradient-3);
      }

      .cls-5 {
        fill: url(#linear-gradient);
      }

      .cls-6 {
        fill: url(#linear-gradient-4);
      }
    </style>
    <linearGradient id="linear-gradient" x1="16.92" y1="56.61" x2="68.74" y2="80.46" gradientUnits="userSpaceOnUse">
      <stop offset="0" stop-color="#a06917"/>
      <stop offset=".17" stop-color="#dec154"/>
      <stop offset=".22" stop-color="#e0c557"/>
      <stop offset=".27" stop-color="#e7d461"/>
      <stop offset=".32" stop-color="#f3eb72"/>
      <stop offset=".36" stop-color="#fdff80"/>
      <stop offset=".4" stop-color="#d2be55"/>
      <stop offset=".43" stop-color="#b38d35"/>
      <stop offset=".46" stop-color="#9f6f21"/>
      <stop offset=".47" stop-color="#98641a"/>
      <stop offset=".49" stop-color="#9d691c"/>
      <stop offset=".52" stop-color="#ad7823"/>
      <stop offset=".54" stop-color="#c7922e"/>
      <stop offset=".57" stop-color="#e5af3c"/>
      <stop offset=".62" stop-color="#efce56"/>
      <stop offset=".69" stop-color="#fcf777"/>
      <stop offset=".7" stop-color="#fbf172"/>
      <stop offset=".77" stop-color="#f9d157"/>
      <stop offset=".81" stop-color="#f4c74f"/>
      <stop offset=".9" stop-color="#ecb642"/>
      <stop offset=".99" stop-color="#926015"/>
    </linearGradient>
    <linearGradient id="linear-gradient-2" x1="31.9" y1="24.06" x2="83.73" y2="47.91" xlink:href="#linear-gradient"/>
    <linearGradient id="linear-gradient-3" x1="69.49" y1="41.82" x2="95.27" y2="47.03" xlink:href="#linear-gradient"/>
    <linearGradient id="linear-gradient-4" x1="24.57" y1="40" x2="76.39" y2="63.86" xlink:href="#linear-gradient"/>
    <linearGradient id="linear-gradient-5" x1="98.18" y1="80.37" x2="68.71" y2="35.27" xlink:href="#linear-gradient"/>
    <linearGradient id="linear-gradient-6" x1="7.44" y1="37.07" x2="21.42" y2="48.45" xlink:href="#linear-gradient"/>
  </defs>
  <rect width="100" height="100"/>
  <g>
    <path class="cls-5" d="M76.06,68.14c.24,.3,.71,.47,.95,.76-3.74,5.17-9.11,9.63-14.98,12.1-5.88,2.47-12.01,3.22-18.31,2.21-7.95-1.27-14.62-4.99-19.95-10.98-4.71-5.3-7.66-12.15-8.43-19.3,.32,.12,.78,.27,1.05,.39,.07,.03,.14,.71,.16,.79,.14,.84,.24,1.69,.41,2.52,.15,.73,.36,1.45,.56,2.18,.17,.61,.32,1.23,.53,1.83,.22,.64,.49,1.26,.77,1.88,.33,.75,.65,1.52,1.04,2.24,.4,.76,.87,1.48,1.32,2.22,.48,.79,.95,1.59,1.48,2.35,.42,.61,.9,1.18,1.38,1.74,.44,.5,.93,.94,1.39,1.42,.44,.46,.85,.94,1.31,1.37,.62,.58,1.27,1.13,1.93,1.66,.75,.6,1.5,1.21,2.31,1.72,1.1,.69,2.24,1.34,3.41,1.9,1.34,.64,2.72,1.22,4.11,1.74,.95,.35,1.94,.57,2.93,.81,.9,.22,1.8,.44,2.72,.58,.95,.14,1.92,.17,2.88,.27,1.76,.18,3.53,.13,5.27-.1,1.7-.22,3.41-.51,5.07-.96,1.69-.45,3.35-1.04,4.96-1.73,2.82-1.21,5.38-2.86,7.73-4.85,2.1-1.78,3.95-3.78,5.54-6.02,.05-.07,.4-.63,.49-.74Z"/>
    <path class="cls-1" d="M18.87,37.06c-.27-.25-.44-.58-.67-.8,2.13-4.65,5.41-8.98,9.35-12.2,6.42-5.25,13.82-7.87,22.11-7.71,7.77,.15,14.71,2.75,20.73,7.69,4.44,3.64,8.18,9.37,10.38,14.78-.45-.13-.96-.55-1.29-.72-.19-.1-.62-1.24-.74-1.45-.66-1.26-1.27-2.55-1.99-3.77-1.12-1.9-2.49-3.63-4.02-5.24-1.83-1.93-3.85-3.64-6.09-5.08-1.79-1.15-3.67-2.15-5.66-2.91-1.17-.45-2.4-.76-3.6-1.14-1.79-.57-3.63-.91-5.51-.99-1.87-.08-3.74-.12-5.61-.07-1.05,.03-2.11,.2-3.14,.43-1.5,.33-2.98,.72-4.45,1.15-1.02,.3-2.01,.7-3,1.1-.64,.26-1.25,.61-1.85,.94-.77,.42-1.52,.86-2.27,1.32-.56,.34-1.1,.71-1.63,1.09-.66,.48-1.35,.93-1.96,1.47-.93,.82-1.83,1.68-2.7,2.57-.64,.66-1.24,1.37-1.81,2.09-.66,.83-1.31,1.68-1.87,2.58-.81,1.32-1.53,2.7-2.29,4.06-.05,.08-.38,.65-.46,.79Z"/>
    <path class="cls-4" d="M82.86,50.97c-.04-.61-.1-1.18-.1-1.74,.01-1.63-.43-3.14-1.12-4.59-.21-.44-.44-.88-.69-1.3-.08-.14-.19-.28-.33-.35-.09-.04-.27,.02-.35,.09-.06,.05-.1,.22-.06,.31,.28,.62,.56,1.24,.88,1.83,.45,.83,.71,1.72,.81,2.64,.09,.86,.1,1.72,.1,2.59,0,.41-.19,.5-.55,.28-.8-.48-1.59-.95-2.25-1.65-.57-.6-1.09-1.23-1.42-1.96-.32-.7-.5-1.47-.67-2.23-.35-1.52-.19-3.05-.08-4.58,.07-.99,.22-1.98,.33-2.97,.03-.28,.34-.47,.6-.32,1.09,.63,2.22,1.15,3.2,1.99,.67,.58,1.38,1.11,1.99,1.77,.89,.97,1.43,2.09,1.62,3.4,.26,1.86-.08,3.64-.62,5.4-.18,.6-.6,1.12-1.29,1.41Z"/>
    <path class="cls-6" d="M61.3,55.69c-.22,1.4-.42,2.76-.65,4.12-.24,1.46-.93,2.7-2.01,3.71-.47,.45-1,.82-1.67,.88-.94,.09-1.89,.22-2.83,.22-1.84,0-3.69-.06-5.53-.16-1.08-.06-1.8-.58-1.92-1.8-.07-.78-.13-1.56-.13-2.34,.01-8.02,.04-16.04,.07-24.06,0-.58,.12-1.17,.26-1.73,.12-.5,.43-.93,.98-1.04,.45-.09,.91-.14,1.36-.18,.38-.03,.75-.05,1.14-.07v-1.75h-12.82v1.72c.64,.03,1.27,.05,1.89,.08,1,.05,1.54,.45,1.7,1.44,.16,.99,.25,1.99,.26,2.99,.02,6.89,.02,13.78,0,20.67,0,1.33-.09,2.65-.17,3.98-.07,1.07-.85,2.15-2.05,2.22-.54,.03-1.08,0-1.62,0v1.78h25.41v-10.68h-1.68Z"/>
    <path class="cls-3" d="M75.85,61.4c.34-1.27,.84-2.49,1.52-3.62,.77-1.28,1.71-2.41,2.85-3.4,.87-.76,1.74-1.54,2.77-2.05,1.17-.59,2.39-1.13,3.64-1.51,1.69-.51,3.43-.87,5.16-1.27,.64-.15,.74-.01,.7,.63-.06,1.05-.1,2.1-.17,3.14-.21,2.89-.53,5.75-1.68,8.45-.69,1.62-1.68,3.04-2.97,4.25-1.12,1.05-2.41,1.84-3.82,2.42-1.48,.6-3,1.08-4.63,1.08-.3,0-.6,.09-.9,.09-.28,0-.37-.1-.18-.39,.17-.26,.26-.57,.4-.86,.36-.74,.69-1.51,1.11-2.22,.6-1.03,1.27-2.03,1.92-3.03,1.29-2,2.89-3.75,4.53-5.47,.18-.19,.39-.37,.52-.59,.06-.11,.03-.39-.05-.44-.16-.09-.47-.17-.57-.09-.56,.46-1.14,.94-1.61,1.49-1.07,1.25-2.15,2.5-3.11,3.83-.95,1.32-1.81,2.71-2.64,4.11-.48,.82-.85,1.71-1.23,2.58-.22,.49-.49,.57-.92,.27-.52-.35-.81-.83-.94-1.42-.14-.68-.24-1.3-.24-2.01,0-.79,.21-2.69,.55-3.98Z"/>
    <path class="cls-2" d="M17.72,53.67c-.05-.7-.1-1.36-.16-2.02-.22-2.28-.68-4.51-1.33-6.71-.59-2-1.38-3.91-2.24-5.8-.08-.18-.22-.37-.38-.46-.17-.09-.4-.05-.61-.07-.02,.23-.13,.52-.04,.7,1.29,2.6,2.34,5.28,2.91,8.13,.35,1.76,.57,3.55,.84,5.33,.02,.16,.03,.34,0,.5-.03,.21-.14,.32-.38,.22-1.36-.58-2.68-1.21-3.86-2.13-1.35-1.04-2.38-2.34-3.25-3.77-.5-.82-.8-1.76-1.15-2.66-.72-1.82-.57-3.73-.47-5.61,.07-1.21,.38-2.41,.64-3.61,.26-1.17,.59-2.32,.91-3.47,.18-.65,.4-1.3,.61-1.95,.11-.35,.34-.42,.65-.22,1.41,.9,2.84,1.77,4.23,2.71,1.26,.86,2.34,1.94,3.37,3.08,2.01,2.23,3.12,4.9,3.45,7.83,.26,2.33,.22,4.69-.59,6.96-.44,1.24-1.2,2.19-2.39,2.78-.04,.02-.08,.03-.11,.04-.2,.06-.39,.12-.63,.19Z"/>
  </g>
</svg>